<mxfile host="app.diagrams.net" agent="Mozilla/5.0 (Windows NT 10.0; Win64; x64) AppleWebKit/537.36 (KHTML, like Gecko) Chrome/131.0.0.0 Safari/537.36" version="26.0.3">
  <diagram id="C5RBs43oDa-KdzZeNtuy" name="Page-1">
    <mxGraphModel grid="1" page="1" gridSize="10" guides="1" tooltips="1" connect="1" arrows="1" fold="1" pageScale="1" pageWidth="827" pageHeight="1169" math="0" shadow="0">
      <root>
        <mxCell id="WIyWlLk6GJQsqaUBKTNV-0" />
        <mxCell id="WIyWlLk6GJQsqaUBKTNV-1" parent="WIyWlLk6GJQsqaUBKTNV-0" />
        <mxCell id="WIyWlLk6GJQsqaUBKTNV-2" value="" style="rounded=0;html=1;jettySize=auto;orthogonalLoop=1;fontSize=11;endArrow=block;endFill=0;endSize=8;strokeWidth=1;shadow=0;labelBackgroundColor=none;edgeStyle=orthogonalEdgeStyle;" edge="1" parent="WIyWlLk6GJQsqaUBKTNV-1" source="WIyWlLk6GJQsqaUBKTNV-7" target="WIyWlLk6GJQsqaUBKTNV-6">
          <mxGeometry relative="1" as="geometry" />
        </mxCell>
        <mxCell id="WIyWlLk6GJQsqaUBKTNV-3" value="Grid Lines" style="rounded=1;whiteSpace=wrap;html=1;fontSize=12;glass=0;strokeWidth=1;shadow=0;" vertex="1" parent="WIyWlLk6GJQsqaUBKTNV-1">
          <mxGeometry x="10" y="30" width="120" height="40" as="geometry" />
        </mxCell>
        <mxCell id="WIyWlLk6GJQsqaUBKTNV-6" value="Edits/ Video generation" style="rhombus;whiteSpace=wrap;html=1;shadow=0;fontFamily=Helvetica;fontSize=12;align=center;strokeWidth=1;spacing=6;spacingTop=-4;fillColor=#dae8fc;strokeColor=#6c8ebf;" vertex="1" parent="WIyWlLk6GJQsqaUBKTNV-1">
          <mxGeometry x="-140" y="195" width="100" height="90" as="geometry" />
        </mxCell>
        <mxCell id="5dnYx-5fdYnEuuB1JhWO-0" value="" style="rounded=0;html=1;jettySize=auto;orthogonalLoop=1;fontSize=11;endArrow=block;endFill=0;endSize=8;strokeWidth=1;shadow=0;labelBackgroundColor=none;edgeStyle=orthogonalEdgeStyle;" edge="1" parent="WIyWlLk6GJQsqaUBKTNV-1" source="WIyWlLk6GJQsqaUBKTNV-3" target="WIyWlLk6GJQsqaUBKTNV-7">
          <mxGeometry relative="1" as="geometry">
            <mxPoint x="130" y="50" as="sourcePoint" />
            <mxPoint x="220" y="260" as="targetPoint" />
          </mxGeometry>
        </mxCell>
        <mxCell id="WIyWlLk6GJQsqaUBKTNV-7" value="Home Page" style="rounded=1;whiteSpace=wrap;html=1;fontSize=12;glass=0;strokeWidth=1;shadow=0;" vertex="1" parent="WIyWlLk6GJQsqaUBKTNV-1">
          <mxGeometry x="160" y="110" width="120" height="40" as="geometry" />
        </mxCell>
        <mxCell id="WIyWlLk6GJQsqaUBKTNV-10" value="Story creation" style="rhombus;whiteSpace=wrap;html=1;shadow=0;fontFamily=Helvetica;fontSize=12;align=center;strokeWidth=1;spacing=6;spacingTop=-4;fillColor=#dae8fc;strokeColor=#6c8ebf;" vertex="1" parent="WIyWlLk6GJQsqaUBKTNV-1">
          <mxGeometry x="820" y="260" width="100" height="85" as="geometry" />
        </mxCell>
        <mxCell id="5dnYx-5fdYnEuuB1JhWO-2" value="" style="endArrow=classic;html=1;rounded=0;exitX=0.356;exitY=1.05;exitDx=0;exitDy=0;exitPerimeter=0;entryX=0.5;entryY=0;entryDx=0;entryDy=0;" edge="1" parent="WIyWlLk6GJQsqaUBKTNV-1" source="WIyWlLk6GJQsqaUBKTNV-7" target="WIyWlLk6GJQsqaUBKTNV-10">
          <mxGeometry width="50" height="50" relative="1" as="geometry">
            <mxPoint x="200" y="160" as="sourcePoint" />
            <mxPoint x="250" y="200" as="targetPoint" />
            <Array as="points">
              <mxPoint x="380" y="152" />
            </Array>
          </mxGeometry>
        </mxCell>
        <mxCell id="5dnYx-5fdYnEuuB1JhWO-7" value="Daily release" style="rhombus;whiteSpace=wrap;html=1;fillColor=#dae8fc;strokeColor=#6c8ebf;" vertex="1" parent="WIyWlLk6GJQsqaUBKTNV-1">
          <mxGeometry x="170" y="200" width="80" height="90" as="geometry" />
        </mxCell>
        <mxCell id="5dnYx-5fdYnEuuB1JhWO-8" value="" style="endArrow=classic;html=1;rounded=0;" edge="1" parent="WIyWlLk6GJQsqaUBKTNV-1">
          <mxGeometry width="50" height="50" relative="1" as="geometry">
            <mxPoint x="210" y="150" as="sourcePoint" />
            <mxPoint x="210" y="200" as="targetPoint" />
          </mxGeometry>
        </mxCell>
        <mxCell id="5dnYx-5fdYnEuuB1JhWO-9" value="Sample video" style="rounded=0;whiteSpace=wrap;html=1;fillColor=#fff2cc;strokeColor=#d6b656;" vertex="1" parent="WIyWlLk6GJQsqaUBKTNV-1">
          <mxGeometry y="350" width="120" height="20" as="geometry" />
        </mxCell>
        <mxCell id="5dnYx-5fdYnEuuB1JhWO-10" value="Selection of your video&amp;nbsp;" style="rounded=0;whiteSpace=wrap;html=1;fillColor=#fff2cc;strokeColor=#d6b656;" vertex="1" parent="WIyWlLk6GJQsqaUBKTNV-1">
          <mxGeometry x="20" y="510" width="120" height="30" as="geometry" />
        </mxCell>
        <mxCell id="5dnYx-5fdYnEuuB1JhWO-11" value="Music choice" style="rounded=0;whiteSpace=wrap;html=1;fillColor=#fff2cc;strokeColor=#d6b656;" vertex="1" parent="WIyWlLk6GJQsqaUBKTNV-1">
          <mxGeometry x="10" y="720" width="120" height="30" as="geometry" />
        </mxCell>
        <mxCell id="5dnYx-5fdYnEuuB1JhWO-12" value="Result" style="rounded=0;whiteSpace=wrap;html=1;fillColor=#fff2cc;strokeColor=#d6b656;" vertex="1" parent="WIyWlLk6GJQsqaUBKTNV-1">
          <mxGeometry x="20" y="910" width="120" height="30" as="geometry" />
        </mxCell>
        <mxCell id="5dnYx-5fdYnEuuB1JhWO-15" value="" style="endArrow=none;dashed=1;html=1;dashPattern=1 3;strokeWidth=2;rounded=0;entryX=0.5;entryY=1;entryDx=0;entryDy=0;exitX=0.447;exitY=0;exitDx=0;exitDy=0;exitPerimeter=0;" edge="1" parent="WIyWlLk6GJQsqaUBKTNV-1" source="5dnYx-5fdYnEuuB1JhWO-9" target="WIyWlLk6GJQsqaUBKTNV-6">
          <mxGeometry width="50" height="50" relative="1" as="geometry">
            <mxPoint x="90" y="400" as="sourcePoint" />
            <mxPoint x="140" y="350" as="targetPoint" />
          </mxGeometry>
        </mxCell>
        <mxCell id="5dnYx-5fdYnEuuB1JhWO-18" value="" style="edgeStyle=orthogonalEdgeStyle;rounded=0;orthogonalLoop=1;jettySize=auto;html=1;" edge="1" parent="WIyWlLk6GJQsqaUBKTNV-1" source="5dnYx-5fdYnEuuB1JhWO-16" target="5dnYx-5fdYnEuuB1JhWO-9">
          <mxGeometry relative="1" as="geometry" />
        </mxCell>
        <mxCell id="5dnYx-5fdYnEuuB1JhWO-16" value="A copy of the video of choice can be uploaded here." style="shape=process;whiteSpace=wrap;html=1;backgroundOutline=1;" vertex="1" parent="WIyWlLk6GJQsqaUBKTNV-1">
          <mxGeometry x="-560" y="360" width="120" height="60" as="geometry" />
        </mxCell>
        <mxCell id="5dnYx-5fdYnEuuB1JhWO-19" value="A chatbot with preloaded questions about what type of video you want and how long it should be along with the mood." style="shape=process;whiteSpace=wrap;html=1;backgroundOutline=1;" vertex="1" parent="WIyWlLk6GJQsqaUBKTNV-1">
          <mxGeometry x="-520" y="445" width="140" height="110" as="geometry" />
        </mxCell>
        <mxCell id="5dnYx-5fdYnEuuB1JhWO-20" value="" style="endArrow=classic;html=1;rounded=0;exitX=1;exitY=0.5;exitDx=0;exitDy=0;entryX=0.5;entryY=1;entryDx=0;entryDy=0;" edge="1" parent="WIyWlLk6GJQsqaUBKTNV-1" source="5dnYx-5fdYnEuuB1JhWO-19" target="5dnYx-5fdYnEuuB1JhWO-9">
          <mxGeometry width="50" height="50" relative="1" as="geometry">
            <mxPoint x="90" y="400" as="sourcePoint" />
            <mxPoint x="140" y="350" as="targetPoint" />
            <Array as="points">
              <mxPoint x="60" y="430" />
            </Array>
          </mxGeometry>
        </mxCell>
        <mxCell id="5dnYx-5fdYnEuuB1JhWO-21" value="" style="endArrow=none;dashed=1;html=1;dashPattern=1 3;strokeWidth=2;rounded=0;entryX=0.669;entryY=0.967;entryDx=0;entryDy=0;entryPerimeter=0;exitX=0.5;exitY=0;exitDx=0;exitDy=0;" edge="1" parent="WIyWlLk6GJQsqaUBKTNV-1" source="5dnYx-5fdYnEuuB1JhWO-10" target="5dnYx-5fdYnEuuB1JhWO-9">
          <mxGeometry width="50" height="50" relative="1" as="geometry">
            <mxPoint x="-50" y="500" as="sourcePoint" />
            <mxPoint y="450" as="targetPoint" />
          </mxGeometry>
        </mxCell>
        <mxCell id="5dnYx-5fdYnEuuB1JhWO-22" value="Link to site with access to all episodes of anime and movies. Once the video is selected, the model analysis the video and breaks down scenes into different moods and characters to create multiple edits" style="shape=process;whiteSpace=wrap;html=1;backgroundOutline=1;" vertex="1" parent="WIyWlLk6GJQsqaUBKTNV-1">
          <mxGeometry x="-550" y="625" width="200" height="125" as="geometry" />
        </mxCell>
        <mxCell id="5dnYx-5fdYnEuuB1JhWO-23" value="" style="endArrow=classic;html=1;rounded=0;exitX=1;exitY=0.5;exitDx=0;exitDy=0;entryX=0;entryY=0.5;entryDx=0;entryDy=0;" edge="1" parent="WIyWlLk6GJQsqaUBKTNV-1" source="5dnYx-5fdYnEuuB1JhWO-22" target="5dnYx-5fdYnEuuB1JhWO-10">
          <mxGeometry width="50" height="50" relative="1" as="geometry">
            <mxPoint x="-50" y="500" as="sourcePoint" />
            <mxPoint y="450" as="targetPoint" />
            <Array as="points">
              <mxPoint x="20" y="585" />
            </Array>
          </mxGeometry>
        </mxCell>
        <mxCell id="5dnYx-5fdYnEuuB1JhWO-24" value="Link to anime alphe and look2movies" style="ellipse;shape=cloud;whiteSpace=wrap;html=1;fillColor=#f8cecc;strokeColor=#b85450;" vertex="1" parent="WIyWlLk6GJQsqaUBKTNV-1">
          <mxGeometry x="-820" y="577.5" width="180" height="125" as="geometry" />
        </mxCell>
        <mxCell id="5dnYx-5fdYnEuuB1JhWO-25" value="Video anaylsis code&amp;nbsp;" style="shape=cube;whiteSpace=wrap;html=1;boundedLbl=1;backgroundOutline=1;darkOpacity=0.05;darkOpacity2=0.1;fillColor=#d5e8d4;strokeColor=#82b366;" vertex="1" parent="WIyWlLk6GJQsqaUBKTNV-1">
          <mxGeometry x="-1120" y="680" width="120" height="80" as="geometry" />
        </mxCell>
        <mxCell id="5dnYx-5fdYnEuuB1JhWO-26" value="" style="endArrow=classic;startArrow=classic;html=1;rounded=0;exitX=0.946;exitY=0.64;exitDx=0;exitDy=0;exitPerimeter=0;entryX=-0.005;entryY=0.091;entryDx=0;entryDy=0;entryPerimeter=0;" edge="1" parent="WIyWlLk6GJQsqaUBKTNV-1" source="5dnYx-5fdYnEuuB1JhWO-24" target="5dnYx-5fdYnEuuB1JhWO-22">
          <mxGeometry width="50" height="50" relative="1" as="geometry">
            <mxPoint x="-330" y="590" as="sourcePoint" />
            <mxPoint x="-280" y="540" as="targetPoint" />
          </mxGeometry>
        </mxCell>
        <mxCell id="5dnYx-5fdYnEuuB1JhWO-29" value="" style="endArrow=classic;startArrow=classic;html=1;rounded=0;exitX=0;exitY=0;exitDx=120;exitDy=50;exitPerimeter=0;entryX=0.008;entryY=0.592;entryDx=0;entryDy=0;entryPerimeter=0;" edge="1" parent="WIyWlLk6GJQsqaUBKTNV-1" source="5dnYx-5fdYnEuuB1JhWO-25" target="5dnYx-5fdYnEuuB1JhWO-22">
          <mxGeometry width="50" height="50" relative="1" as="geometry">
            <mxPoint x="-330" y="590" as="sourcePoint" />
            <mxPoint x="-280" y="540" as="targetPoint" />
          </mxGeometry>
        </mxCell>
        <mxCell id="5dnYx-5fdYnEuuB1JhWO-30" value="Link to chatbot with preloaded questions&amp;nbsp;" style="ellipse;shape=cloud;whiteSpace=wrap;html=1;fillColor=#f8cecc;strokeColor=#b85450;" vertex="1" parent="WIyWlLk6GJQsqaUBKTNV-1">
          <mxGeometry x="-810" y="440" width="140" height="120" as="geometry" />
        </mxCell>
        <mxCell id="5dnYx-5fdYnEuuB1JhWO-31" value="" style="endArrow=classic;startArrow=classic;html=1;rounded=0;exitX=0.96;exitY=0.7;exitDx=0;exitDy=0;exitPerimeter=0;entryX=0.012;entryY=0.406;entryDx=0;entryDy=0;entryPerimeter=0;" edge="1" parent="WIyWlLk6GJQsqaUBKTNV-1" source="5dnYx-5fdYnEuuB1JhWO-30" target="5dnYx-5fdYnEuuB1JhWO-19">
          <mxGeometry width="50" height="50" relative="1" as="geometry">
            <mxPoint x="-330" y="450" as="sourcePoint" />
            <mxPoint x="-280" y="400" as="targetPoint" />
          </mxGeometry>
        </mxCell>
        <mxCell id="5dnYx-5fdYnEuuB1JhWO-32" value="Picture Selection" style="whiteSpace=wrap;html=1;fillColor=#fff2cc;strokeColor=#d6b656;" vertex="1" parent="WIyWlLk6GJQsqaUBKTNV-1">
          <mxGeometry x="160" y="345" width="120" height="35" as="geometry" />
        </mxCell>
        <mxCell id="5dnYx-5fdYnEuuB1JhWO-34" value="" style="endArrow=none;dashed=1;html=1;dashPattern=1 3;strokeWidth=2;rounded=0;exitX=0.403;exitY=-0.114;exitDx=0;exitDy=0;exitPerimeter=0;entryX=0.5;entryY=1;entryDx=0;entryDy=0;" edge="1" parent="WIyWlLk6GJQsqaUBKTNV-1" source="5dnYx-5fdYnEuuB1JhWO-32" target="5dnYx-5fdYnEuuB1JhWO-7">
          <mxGeometry width="50" height="50" relative="1" as="geometry">
            <mxPoint x="240" y="290" as="sourcePoint" />
            <mxPoint x="290" y="240" as="targetPoint" />
          </mxGeometry>
        </mxCell>
        <mxCell id="5dnYx-5fdYnEuuB1JhWO-35" value="Character selection" style="whiteSpace=wrap;html=1;fillColor=#fff2cc;strokeColor=#d6b656;" vertex="1" parent="WIyWlLk6GJQsqaUBKTNV-1">
          <mxGeometry x="180" y="540" width="120" height="37.5" as="geometry" />
        </mxCell>
        <mxCell id="5dnYx-5fdYnEuuB1JhWO-37" value="&amp;nbsp;Results" style="whiteSpace=wrap;html=1;fillColor=#fff2cc;strokeColor=#d6b656;" vertex="1" parent="WIyWlLk6GJQsqaUBKTNV-1">
          <mxGeometry x="190" y="760" width="120" height="30" as="geometry" />
        </mxCell>
        <mxCell id="5dnYx-5fdYnEuuB1JhWO-39" value="" style="endArrow=none;dashed=1;html=1;dashPattern=1 3;strokeWidth=2;rounded=0;entryX=0.5;entryY=1;entryDx=0;entryDy=0;exitX=0.5;exitY=0;exitDx=0;exitDy=0;" edge="1" parent="WIyWlLk6GJQsqaUBKTNV-1" source="5dnYx-5fdYnEuuB1JhWO-35" target="5dnYx-5fdYnEuuB1JhWO-32">
          <mxGeometry width="50" height="50" relative="1" as="geometry">
            <mxPoint x="230" y="420" as="sourcePoint" />
            <mxPoint x="270" y="400" as="targetPoint" />
          </mxGeometry>
        </mxCell>
        <mxCell id="5dnYx-5fdYnEuuB1JhWO-40" value="" style="endArrow=none;dashed=1;html=1;dashPattern=1 3;strokeWidth=2;rounded=0;exitX=0.5;exitY=0;exitDx=0;exitDy=0;entryX=0.5;entryY=1;entryDx=0;entryDy=0;" edge="1" parent="WIyWlLk6GJQsqaUBKTNV-1" source="5dnYx-5fdYnEuuB1JhWO-37" target="5dnYx-5fdYnEuuB1JhWO-35">
          <mxGeometry width="50" height="50" relative="1" as="geometry">
            <mxPoint x="240" y="450" as="sourcePoint" />
            <mxPoint x="290" y="400" as="targetPoint" />
          </mxGeometry>
        </mxCell>
        <mxCell id="5dnYx-5fdYnEuuB1JhWO-41" value="chatbot with link to pintrest so you can scroll through and select one&amp;nbsp;" style="shape=process;whiteSpace=wrap;html=1;backgroundOutline=1;" vertex="1" parent="WIyWlLk6GJQsqaUBKTNV-1">
          <mxGeometry x="350" y="320" width="130" height="77.5" as="geometry" />
        </mxCell>
        <mxCell id="5dnYx-5fdYnEuuB1JhWO-43" value="Box to upload your image if you want to&amp;nbsp;" style="shape=process;whiteSpace=wrap;html=1;backgroundOutline=1;" vertex="1" parent="WIyWlLk6GJQsqaUBKTNV-1">
          <mxGeometry x="310" y="445" width="120" height="60" as="geometry" />
        </mxCell>
        <mxCell id="5dnYx-5fdYnEuuB1JhWO-44" value="" style="endArrow=classic;html=1;rounded=0;exitX=0;exitY=0.5;exitDx=0;exitDy=0;entryX=1;entryY=1;entryDx=0;entryDy=0;" edge="1" parent="WIyWlLk6GJQsqaUBKTNV-1" source="5dnYx-5fdYnEuuB1JhWO-43" target="5dnYx-5fdYnEuuB1JhWO-32">
          <mxGeometry width="50" height="50" relative="1" as="geometry">
            <mxPoint x="50" y="470" as="sourcePoint" />
            <mxPoint x="100" y="420" as="targetPoint" />
            <Array as="points">
              <mxPoint x="330" y="420" />
            </Array>
          </mxGeometry>
        </mxCell>
        <mxCell id="5dnYx-5fdYnEuuB1JhWO-45" value="" style="endArrow=classic;html=1;rounded=0;entryX=1;entryY=0.5;entryDx=0;entryDy=0;" edge="1" parent="WIyWlLk6GJQsqaUBKTNV-1" source="5dnYx-5fdYnEuuB1JhWO-41" target="5dnYx-5fdYnEuuB1JhWO-32">
          <mxGeometry width="50" height="50" relative="1" as="geometry">
            <mxPoint x="50" y="470" as="sourcePoint" />
            <mxPoint x="100" y="420" as="targetPoint" />
          </mxGeometry>
        </mxCell>
        <mxCell id="5dnYx-5fdYnEuuB1JhWO-46" value="Api link to pintrest or any site with free pictures." style="ellipse;shape=cloud;whiteSpace=wrap;html=1;fillColor=#f8cecc;strokeColor=#b85450;" vertex="1" parent="WIyWlLk6GJQsqaUBKTNV-1">
          <mxGeometry x="560" y="260" width="170" height="130" as="geometry" />
        </mxCell>
        <mxCell id="5dnYx-5fdYnEuuB1JhWO-48" value="" style="endArrow=classic;startArrow=classic;html=1;rounded=0;exitX=1;exitY=0.5;exitDx=0;exitDy=0;entryX=0.096;entryY=0.603;entryDx=0;entryDy=0;entryPerimeter=0;" edge="1" parent="WIyWlLk6GJQsqaUBKTNV-1" source="5dnYx-5fdYnEuuB1JhWO-41" target="5dnYx-5fdYnEuuB1JhWO-46">
          <mxGeometry width="50" height="50" relative="1" as="geometry">
            <mxPoint x="560" y="470" as="sourcePoint" />
            <mxPoint x="610" y="420" as="targetPoint" />
          </mxGeometry>
        </mxCell>
        <mxCell id="5dnYx-5fdYnEuuB1JhWO-49" value="Voice overs of multiple characters from moves , books anime, ( pain speech from Naruto , Morgan freeman in snitches and rats.&amp;nbsp;&amp;nbsp;" style="shape=process;whiteSpace=wrap;html=1;backgroundOutline=1;" vertex="1" parent="WIyWlLk6GJQsqaUBKTNV-1">
          <mxGeometry x="460" y="511.25" width="180" height="95" as="geometry" />
        </mxCell>
        <mxCell id="5dnYx-5fdYnEuuB1JhWO-51" value="" style="endArrow=none;dashed=1;html=1;dashPattern=1 3;strokeWidth=2;rounded=0;entryX=0.5;entryY=1;entryDx=0;entryDy=0;exitX=0.5;exitY=0;exitDx=0;exitDy=0;" edge="1" parent="WIyWlLk6GJQsqaUBKTNV-1" source="5dnYx-5fdYnEuuB1JhWO-11" target="5dnYx-5fdYnEuuB1JhWO-10">
          <mxGeometry width="50" height="50" relative="1" as="geometry">
            <mxPoint x="-30" y="660" as="sourcePoint" />
            <mxPoint x="20" y="610" as="targetPoint" />
          </mxGeometry>
        </mxCell>
        <mxCell id="5dnYx-5fdYnEuuB1JhWO-52" value="" style="endArrow=none;dashed=1;html=1;dashPattern=1 3;strokeWidth=2;rounded=0;exitX=0.5;exitY=0;exitDx=0;exitDy=0;entryX=0.5;entryY=1;entryDx=0;entryDy=0;" edge="1" parent="WIyWlLk6GJQsqaUBKTNV-1" source="5dnYx-5fdYnEuuB1JhWO-12" target="5dnYx-5fdYnEuuB1JhWO-11">
          <mxGeometry width="50" height="50" relative="1" as="geometry">
            <mxPoint x="270" y="810" as="sourcePoint" />
            <mxPoint x="320" y="760" as="targetPoint" />
          </mxGeometry>
        </mxCell>
        <mxCell id="5dnYx-5fdYnEuuB1JhWO-53" value="based on length selected nd length of voice over and number of pictures uploaded , create videos where it starts with an advanced grid and then slowly rearages itself to form the original picture, match the voice over timing for a more enjoyable effect&amp;nbsp;" style="shape=process;whiteSpace=wrap;html=1;backgroundOutline=1;" vertex="1" parent="WIyWlLk6GJQsqaUBKTNV-1">
          <mxGeometry x="430" y="730" width="240" height="130" as="geometry" />
        </mxCell>
        <mxCell id="5dnYx-5fdYnEuuB1JhWO-59" value="Background music to match the video , AI to control pitch of music at different intervals to match whats happening in video, capcut edits and effects also added to video." style="shape=process;whiteSpace=wrap;html=1;backgroundOutline=1;" vertex="1" parent="WIyWlLk6GJQsqaUBKTNV-1">
          <mxGeometry x="-560" y="800" width="240" height="110" as="geometry" />
        </mxCell>
        <mxCell id="5dnYx-5fdYnEuuB1JhWO-60" value="" style="endArrow=classic;html=1;rounded=0;exitX=1;exitY=0.5;exitDx=0;exitDy=0;entryX=0;entryY=0.75;entryDx=0;entryDy=0;" edge="1" parent="WIyWlLk6GJQsqaUBKTNV-1" source="5dnYx-5fdYnEuuB1JhWO-59" target="5dnYx-5fdYnEuuB1JhWO-11">
          <mxGeometry width="50" height="50" relative="1" as="geometry">
            <mxPoint x="-130" y="640" as="sourcePoint" />
            <mxPoint x="-80" y="590" as="targetPoint" />
          </mxGeometry>
        </mxCell>
        <mxCell id="5dnYx-5fdYnEuuB1JhWO-61" value="Link to capcut or other editing software and link to ai model trained to create edits similar to the sample video.&amp;nbsp;" style="ellipse;shape=cloud;whiteSpace=wrap;html=1;fillColor=#f8cecc;strokeColor=#b85450;" vertex="1" parent="WIyWlLk6GJQsqaUBKTNV-1">
          <mxGeometry x="-840" y="845" width="225" height="235" as="geometry" />
        </mxCell>
        <mxCell id="5dnYx-5fdYnEuuB1JhWO-62" value="" style="endArrow=classic;startArrow=classic;html=1;rounded=0;exitX=0.875;exitY=0.5;exitDx=0;exitDy=0;exitPerimeter=0;entryX=0;entryY=0.75;entryDx=0;entryDy=0;" edge="1" parent="WIyWlLk6GJQsqaUBKTNV-1" source="5dnYx-5fdYnEuuB1JhWO-61" target="5dnYx-5fdYnEuuB1JhWO-59">
          <mxGeometry width="50" height="50" relative="1" as="geometry">
            <mxPoint x="-330" y="770" as="sourcePoint" />
            <mxPoint x="-280" y="720" as="targetPoint" />
          </mxGeometry>
        </mxCell>
        <mxCell id="5dnYx-5fdYnEuuB1JhWO-63" value="A selection of 3 - 5 videos similar to the ones in the sampe video with either different music or a different emotional tone. Ready made to post online." style="shape=process;whiteSpace=wrap;html=1;backgroundOutline=1;" vertex="1" parent="WIyWlLk6GJQsqaUBKTNV-1">
          <mxGeometry x="-370" y="1030" width="260" height="110" as="geometry" />
        </mxCell>
        <mxCell id="5dnYx-5fdYnEuuB1JhWO-64" value="" style="endArrow=classic;html=1;rounded=0;exitX=1.011;exitY=0.609;exitDx=0;exitDy=0;exitPerimeter=0;entryX=0.5;entryY=1;entryDx=0;entryDy=0;" edge="1" parent="WIyWlLk6GJQsqaUBKTNV-1" source="5dnYx-5fdYnEuuB1JhWO-63" target="5dnYx-5fdYnEuuB1JhWO-12">
          <mxGeometry width="50" height="50" relative="1" as="geometry">
            <mxPoint x="-330" y="950" as="sourcePoint" />
            <mxPoint x="-280" y="900" as="targetPoint" />
          </mxGeometry>
        </mxCell>
        <mxCell id="5dnYx-5fdYnEuuB1JhWO-65" value="" style="endArrow=classic;startArrow=classic;html=1;rounded=0;exitX=0.477;exitY=0.112;exitDx=0;exitDy=0;exitPerimeter=0;entryX=0.894;entryY=0.986;entryDx=0;entryDy=0;entryPerimeter=0;" edge="1" parent="WIyWlLk6GJQsqaUBKTNV-1" source="5dnYx-5fdYnEuuB1JhWO-61" target="5dnYx-5fdYnEuuB1JhWO-25">
          <mxGeometry width="50" height="50" relative="1" as="geometry">
            <mxPoint x="-640" y="680" as="sourcePoint" />
            <mxPoint x="-590" y="630" as="targetPoint" />
          </mxGeometry>
        </mxCell>
        <mxCell id="5dnYx-5fdYnEuuB1JhWO-66" value="" style="endArrow=classic;startArrow=classic;html=1;rounded=0;exitX=0.625;exitY=0.2;exitDx=0;exitDy=0;exitPerimeter=0;entryX=0;entryY=0.75;entryDx=0;entryDy=0;" edge="1" parent="WIyWlLk6GJQsqaUBKTNV-1" source="5dnYx-5fdYnEuuB1JhWO-24" target="5dnYx-5fdYnEuuB1JhWO-49">
          <mxGeometry width="50" height="50" relative="1" as="geometry">
            <mxPoint x="-200" y="710" as="sourcePoint" />
            <mxPoint x="-150" y="660" as="targetPoint" />
          </mxGeometry>
        </mxCell>
        <mxCell id="5dnYx-5fdYnEuuB1JhWO-67" value="Link to social media platforms for posting and adverising&amp;nbsp;" style="ellipse;shape=cloud;whiteSpace=wrap;html=1;fillColor=#f8cecc;strokeColor=#b85450;" vertex="1" parent="WIyWlLk6GJQsqaUBKTNV-1">
          <mxGeometry x="-800" y="1080" width="230" height="265" as="geometry" />
        </mxCell>
        <mxCell id="5dnYx-5fdYnEuuB1JhWO-68" value="" style="endArrow=classic;startArrow=classic;html=1;rounded=0;exitX=0.88;exitY=0.25;exitDx=0;exitDy=0;exitPerimeter=0;entryX=0;entryY=0.5;entryDx=0;entryDy=0;" edge="1" parent="WIyWlLk6GJQsqaUBKTNV-1" source="5dnYx-5fdYnEuuB1JhWO-67" target="5dnYx-5fdYnEuuB1JhWO-63">
          <mxGeometry width="50" height="50" relative="1" as="geometry">
            <mxPoint x="250" y="740" as="sourcePoint" />
            <mxPoint x="300" y="690" as="targetPoint" />
          </mxGeometry>
        </mxCell>
        <mxCell id="5dnYx-5fdYnEuuB1JhWO-71" value="" style="endArrow=classic;html=1;rounded=0;exitX=0;exitY=0.5;exitDx=0;exitDy=0;entryX=1;entryY=0.25;entryDx=0;entryDy=0;" edge="1" parent="WIyWlLk6GJQsqaUBKTNV-1" source="5dnYx-5fdYnEuuB1JhWO-53" target="5dnYx-5fdYnEuuB1JhWO-37">
          <mxGeometry width="50" height="50" relative="1" as="geometry">
            <mxPoint x="250" y="740" as="sourcePoint" />
            <mxPoint x="300" y="690" as="targetPoint" />
          </mxGeometry>
        </mxCell>
        <mxCell id="5dnYx-5fdYnEuuB1JhWO-72" value="" style="endArrow=classic;html=1;rounded=0;exitX=0;exitY=0.25;exitDx=0;exitDy=0;entryX=1;entryY=0.75;entryDx=0;entryDy=0;" edge="1" parent="WIyWlLk6GJQsqaUBKTNV-1" source="5dnYx-5fdYnEuuB1JhWO-49" target="5dnYx-5fdYnEuuB1JhWO-35">
          <mxGeometry width="50" height="50" relative="1" as="geometry">
            <mxPoint x="250" y="740" as="sourcePoint" />
            <mxPoint x="300" y="690" as="targetPoint" />
          </mxGeometry>
        </mxCell>
        <mxCell id="5dnYx-5fdYnEuuB1JhWO-73" value="" style="endArrow=classic;startArrow=classic;html=1;rounded=0;entryX=0.629;entryY=1;entryDx=0;entryDy=0;exitX=0.8;exitY=0.8;exitDx=0;exitDy=0;exitPerimeter=0;entryPerimeter=0;" edge="1" parent="WIyWlLk6GJQsqaUBKTNV-1" source="5dnYx-5fdYnEuuB1JhWO-67" target="5dnYx-5fdYnEuuB1JhWO-53">
          <mxGeometry width="50" height="50" relative="1" as="geometry">
            <mxPoint x="160" y="900" as="sourcePoint" />
            <mxPoint x="210" y="850" as="targetPoint" />
            <Array as="points">
              <mxPoint y="1240" />
            </Array>
          </mxGeometry>
        </mxCell>
        <mxCell id="5dnYx-5fdYnEuuB1JhWO-74" value="Selection page&amp;nbsp;" style="rounded=0;whiteSpace=wrap;html=1;fillColor=#fff2cc;strokeColor=#d6b656;" vertex="1" parent="WIyWlLk6GJQsqaUBKTNV-1">
          <mxGeometry x="840" y="450" width="190" height="105" as="geometry" />
        </mxCell>
        <mxCell id="5dnYx-5fdYnEuuB1JhWO-75" value="Whiteboard" style="rounded=0;whiteSpace=wrap;html=1;fillColor=#fff2cc;strokeColor=#d6b656;" vertex="1" parent="WIyWlLk6GJQsqaUBKTNV-1">
          <mxGeometry x="827" y="658.13" width="183" height="41.87" as="geometry" />
        </mxCell>
        <mxCell id="5dnYx-5fdYnEuuB1JhWO-76" value="Character and scenerio selection" style="rounded=0;whiteSpace=wrap;html=1;fillColor=#fff2cc;strokeColor=#d6b656;" vertex="1" parent="WIyWlLk6GJQsqaUBKTNV-1">
          <mxGeometry x="800" y="790" width="310" height="50" as="geometry" />
        </mxCell>
        <mxCell id="5dnYx-5fdYnEuuB1JhWO-77" value="Story selection page divided into ongoing stories, completed series, and new story, along with story ideas.&lt;br&gt;&lt;div&gt;Connected to chatbot as well.&lt;/div&gt;" style="shape=process;whiteSpace=wrap;html=1;backgroundOutline=1;" vertex="1" parent="WIyWlLk6GJQsqaUBKTNV-1">
          <mxGeometry x="1200" y="350" width="150" height="130" as="geometry" />
        </mxCell>
        <mxCell id="5dnYx-5fdYnEuuB1JhWO-78" value="" style="endArrow=classic;html=1;rounded=0;exitX=0.021;exitY=0.648;exitDx=0;exitDy=0;exitPerimeter=0;entryX=1;entryY=0.5;entryDx=0;entryDy=0;" edge="1" parent="WIyWlLk6GJQsqaUBKTNV-1" source="5dnYx-5fdYnEuuB1JhWO-77" target="5dnYx-5fdYnEuuB1JhWO-74">
          <mxGeometry width="50" height="50" relative="1" as="geometry">
            <mxPoint x="780" y="550" as="sourcePoint" />
            <mxPoint x="830" y="500" as="targetPoint" />
          </mxGeometry>
        </mxCell>
        <mxCell id="5dnYx-5fdYnEuuB1JhWO-79" value="" style="endArrow=none;dashed=1;html=1;dashPattern=1 3;strokeWidth=2;rounded=0;entryX=0.5;entryY=1;entryDx=0;entryDy=0;exitX=0.5;exitY=0;exitDx=0;exitDy=0;" edge="1" parent="WIyWlLk6GJQsqaUBKTNV-1" source="5dnYx-5fdYnEuuB1JhWO-74" target="WIyWlLk6GJQsqaUBKTNV-10">
          <mxGeometry width="50" height="50" relative="1" as="geometry">
            <mxPoint x="560" y="550" as="sourcePoint" />
            <mxPoint x="610" y="500" as="targetPoint" />
          </mxGeometry>
        </mxCell>
        <mxCell id="5dnYx-5fdYnEuuB1JhWO-80" value="Section of reference for characters and then reference for the world building (e.g Nagi and Reo from Bluelock in Kaiju number 8.)" style="shape=process;whiteSpace=wrap;html=1;backgroundOutline=1;" vertex="1" parent="WIyWlLk6GJQsqaUBKTNV-1">
          <mxGeometry x="1220" y="540" width="190" height="125" as="geometry" />
        </mxCell>
        <mxCell id="5dnYx-5fdYnEuuB1JhWO-81" value="" style="endArrow=classic;html=1;rounded=0;exitX=0;exitY=0.5;exitDx=0;exitDy=0;" edge="1" parent="WIyWlLk6GJQsqaUBKTNV-1" source="5dnYx-5fdYnEuuB1JhWO-80">
          <mxGeometry width="50" height="50" relative="1" as="geometry">
            <mxPoint x="890" y="550" as="sourcePoint" />
            <mxPoint x="1030" y="530" as="targetPoint" />
          </mxGeometry>
        </mxCell>
        <mxCell id="5dnYx-5fdYnEuuB1JhWO-82" value="Link to manga api and blogs of anime info along with movie scripts and movie reviewers info." style="ellipse;shape=cloud;whiteSpace=wrap;html=1;fillColor=#f8cecc;strokeColor=#b85450;" vertex="1" parent="WIyWlLk6GJQsqaUBKTNV-1">
          <mxGeometry x="1530" y="435" width="210" height="230" as="geometry" />
        </mxCell>
        <mxCell id="5dnYx-5fdYnEuuB1JhWO-83" value="" style="endArrow=classic;startArrow=classic;html=1;rounded=0;entryX=0.118;entryY=0.642;entryDx=0;entryDy=0;entryPerimeter=0;exitX=0.998;exitY=0.594;exitDx=0;exitDy=0;exitPerimeter=0;" edge="1" parent="WIyWlLk6GJQsqaUBKTNV-1" source="5dnYx-5fdYnEuuB1JhWO-80" target="5dnYx-5fdYnEuuB1JhWO-82">
          <mxGeometry width="50" height="50" relative="1" as="geometry">
            <mxPoint x="1300" y="610" as="sourcePoint" />
            <mxPoint x="1350" y="560" as="targetPoint" />
          </mxGeometry>
        </mxCell>
        <mxCell id="5dnYx-5fdYnEuuB1JhWO-84" value="" style="endArrow=classic;startArrow=classic;html=1;rounded=0;exitX=0.875;exitY=0.5;exitDx=0;exitDy=0;exitPerimeter=0;entryX=0;entryY=0.25;entryDx=0;entryDy=0;" edge="1" parent="WIyWlLk6GJQsqaUBKTNV-1" source="5dnYx-5fdYnEuuB1JhWO-30" target="5dnYx-5fdYnEuuB1JhWO-77">
          <mxGeometry width="50" height="50" relative="1" as="geometry">
            <mxPoint x="90" y="770" as="sourcePoint" />
            <mxPoint x="1010" y="420" as="targetPoint" />
          </mxGeometry>
        </mxCell>
        <mxCell id="5dnYx-5fdYnEuuB1JhWO-85" value="Reference images for character mapping in the stories and for visual image and short video generation to go with the stories.&lt;div&gt;Pretty much work space for creating the story type ,, either blog style story telling , comic book style , voice overs, and more features.&lt;/div&gt;" style="shape=process;whiteSpace=wrap;html=1;backgroundOutline=1;" vertex="1" parent="WIyWlLk6GJQsqaUBKTNV-1">
          <mxGeometry x="1210" y="695" width="220" height="150" as="geometry" />
        </mxCell>
        <mxCell id="5dnYx-5fdYnEuuB1JhWO-86" value="" style="endArrow=classic;html=1;rounded=0;exitX=0.018;exitY=0.61;exitDx=0;exitDy=0;exitPerimeter=0;" edge="1" parent="WIyWlLk6GJQsqaUBKTNV-1" source="5dnYx-5fdYnEuuB1JhWO-85" target="5dnYx-5fdYnEuuB1JhWO-75">
          <mxGeometry width="50" height="50" relative="1" as="geometry">
            <mxPoint x="1190" y="810" as="sourcePoint" />
            <mxPoint x="1240" y="760" as="targetPoint" />
          </mxGeometry>
        </mxCell>
        <mxCell id="5dnYx-5fdYnEuuB1JhWO-87" value="The frame work , empty if you will until you start filling it in with characters and scenearios" style="shape=process;whiteSpace=wrap;html=1;backgroundOutline=1;" vertex="1" parent="WIyWlLk6GJQsqaUBKTNV-1">
          <mxGeometry x="1500" y="715" width="220" height="125" as="geometry" />
        </mxCell>
        <mxCell id="5dnYx-5fdYnEuuB1JhWO-88" value="" style="endArrow=classic;html=1;rounded=0;entryX=1;entryY=0.75;entryDx=0;entryDy=0;exitX=0;exitY=0.5;exitDx=0;exitDy=0;" edge="1" parent="WIyWlLk6GJQsqaUBKTNV-1" source="5dnYx-5fdYnEuuB1JhWO-87" target="5dnYx-5fdYnEuuB1JhWO-75">
          <mxGeometry width="50" height="50" relative="1" as="geometry">
            <mxPoint x="1160" y="750" as="sourcePoint" />
            <mxPoint x="1210" y="700" as="targetPoint" />
            <Array as="points">
              <mxPoint x="1450" y="690" />
            </Array>
          </mxGeometry>
        </mxCell>
        <mxCell id="5dnYx-5fdYnEuuB1JhWO-89" value="Reference to comic style generation of manga or comic book pages based on characters selected, their personaity and relationship to each other, and the world and power system of the manga they are dropped into aong with character costume design." style="shape=process;whiteSpace=wrap;html=1;backgroundOutline=1;" vertex="1" parent="WIyWlLk6GJQsqaUBKTNV-1">
          <mxGeometry x="1170" y="890" width="210" height="170" as="geometry" />
        </mxCell>
        <mxCell id="5dnYx-5fdYnEuuB1JhWO-90" value="Based on user selection , the model generates a story and output results." style="shape=process;whiteSpace=wrap;html=1;backgroundOutline=1;" vertex="1" parent="WIyWlLk6GJQsqaUBKTNV-1">
          <mxGeometry x="1470" y="890" width="240" height="120" as="geometry" />
        </mxCell>
        <mxCell id="5dnYx-5fdYnEuuB1JhWO-92" value="" style="endArrow=classic;html=1;rounded=0;exitX=0.013;exitY=0.592;exitDx=0;exitDy=0;exitPerimeter=0;entryX=1;entryY=0.5;entryDx=0;entryDy=0;" edge="1" parent="WIyWlLk6GJQsqaUBKTNV-1" source="5dnYx-5fdYnEuuB1JhWO-89" target="5dnYx-5fdYnEuuB1JhWO-76">
          <mxGeometry width="50" height="50" relative="1" as="geometry">
            <mxPoint x="1000" y="750" as="sourcePoint" />
            <mxPoint x="1050" y="700" as="targetPoint" />
          </mxGeometry>
        </mxCell>
        <mxCell id="5dnYx-5fdYnEuuB1JhWO-93" value="" style="endArrow=classic;html=1;rounded=0;exitX=0;exitY=0.5;exitDx=0;exitDy=0;entryX=1;entryY=0.75;entryDx=0;entryDy=0;" edge="1" parent="WIyWlLk6GJQsqaUBKTNV-1" source="5dnYx-5fdYnEuuB1JhWO-90" target="5dnYx-5fdYnEuuB1JhWO-76">
          <mxGeometry width="50" height="50" relative="1" as="geometry">
            <mxPoint x="1000" y="750" as="sourcePoint" />
            <mxPoint x="1050" y="700" as="targetPoint" />
            <Array as="points">
              <mxPoint x="1180" y="860" />
            </Array>
          </mxGeometry>
        </mxCell>
        <mxCell id="5dnYx-5fdYnEuuB1JhWO-94" value="" style="endArrow=classic;startArrow=classic;html=1;rounded=0;exitX=0.314;exitY=1.061;exitDx=0;exitDy=0;entryX=0;entryY=0;entryDx=70;entryDy=80;entryPerimeter=0;exitPerimeter=0;" edge="1" parent="WIyWlLk6GJQsqaUBKTNV-1" source="5dnYx-5fdYnEuuB1JhWO-90" target="5dnYx-5fdYnEuuB1JhWO-25">
          <mxGeometry width="50" height="50" relative="1" as="geometry">
            <mxPoint x="890" y="780" as="sourcePoint" />
            <mxPoint x="-90" y="1200" as="targetPoint" />
          </mxGeometry>
        </mxCell>
        <mxCell id="5dnYx-5fdYnEuuB1JhWO-96" value="" style="endArrow=none;dashed=1;html=1;dashPattern=1 3;strokeWidth=2;rounded=0;entryX=0.5;entryY=1;entryDx=0;entryDy=0;exitX=0.577;exitY=0.172;exitDx=0;exitDy=0;exitPerimeter=0;" edge="1" parent="WIyWlLk6GJQsqaUBKTNV-1" source="5dnYx-5fdYnEuuB1JhWO-75" target="5dnYx-5fdYnEuuB1JhWO-74">
          <mxGeometry width="50" height="50" relative="1" as="geometry">
            <mxPoint x="1080" y="790" as="sourcePoint" />
            <mxPoint x="1130" y="740" as="targetPoint" />
          </mxGeometry>
        </mxCell>
        <mxCell id="5dnYx-5fdYnEuuB1JhWO-97" value="" style="endArrow=none;dashed=1;html=1;dashPattern=1 3;strokeWidth=2;rounded=0;exitX=0.383;exitY=0.022;exitDx=0;exitDy=0;exitPerimeter=0;entryX=0.5;entryY=1;entryDx=0;entryDy=0;" edge="1" parent="WIyWlLk6GJQsqaUBKTNV-1" source="5dnYx-5fdYnEuuB1JhWO-76" target="5dnYx-5fdYnEuuB1JhWO-75">
          <mxGeometry width="50" height="50" relative="1" as="geometry">
            <mxPoint x="1080" y="790" as="sourcePoint" />
            <mxPoint x="1130" y="740" as="targetPoint" />
          </mxGeometry>
        </mxCell>
        <mxCell id="5dnYx-5fdYnEuuB1JhWO-98" value="" style="endArrow=none;dashed=1;html=1;dashPattern=1 3;strokeWidth=2;rounded=0;exitX=0.5;exitY=0;exitDx=0;exitDy=0;entryX=0.5;entryY=1;entryDx=0;entryDy=0;" edge="1" parent="WIyWlLk6GJQsqaUBKTNV-1" source="5dnYx-5fdYnEuuB1JhWO-95" target="5dnYx-5fdYnEuuB1JhWO-76">
          <mxGeometry width="50" height="50" relative="1" as="geometry">
            <mxPoint x="1080" y="790" as="sourcePoint" />
            <mxPoint x="1130" y="740" as="targetPoint" />
          </mxGeometry>
        </mxCell>
        <mxCell id="5dnYx-5fdYnEuuB1JhWO-95" value="Results" style="rounded=0;whiteSpace=wrap;html=1;fillColor=#fff2cc;strokeColor=#d6b656;" vertex="1" parent="WIyWlLk6GJQsqaUBKTNV-1">
          <mxGeometry x="832.5" y="1022" width="205" height="58" as="geometry" />
        </mxCell>
        <mxCell id="5dnYx-5fdYnEuuB1JhWO-100" value="" style="endArrow=classic;startArrow=classic;html=1;rounded=0;entryX=0;entryY=0.5;entryDx=0;entryDy=0;exitX=0.96;exitY=0.7;exitDx=0;exitDy=0;exitPerimeter=0;" edge="1" parent="WIyWlLk6GJQsqaUBKTNV-1" source="5dnYx-5fdYnEuuB1JhWO-67" target="5dnYx-5fdYnEuuB1JhWO-95">
          <mxGeometry width="50" height="50" relative="1" as="geometry">
            <mxPoint x="640" y="1110" as="sourcePoint" />
            <mxPoint x="690" y="1060" as="targetPoint" />
          </mxGeometry>
        </mxCell>
        <mxCell id="5dnYx-5fdYnEuuB1JhWO-102" value="Baes on seections and length of story chosen the model will generate content for different moods." style="shape=process;whiteSpace=wrap;html=1;backgroundOutline=1;" vertex="1" parent="WIyWlLk6GJQsqaUBKTNV-1">
          <mxGeometry x="810" y="1260" width="220" height="110" as="geometry" />
        </mxCell>
        <mxCell id="5dnYx-5fdYnEuuB1JhWO-103" value="" style="endArrow=classic;html=1;rounded=0;exitX=0;exitY=0.5;exitDx=0;exitDy=0;entryX=0.398;entryY=1;entryDx=0;entryDy=0;entryPerimeter=0;" edge="1" parent="WIyWlLk6GJQsqaUBKTNV-1" source="5dnYx-5fdYnEuuB1JhWO-102" target="5dnYx-5fdYnEuuB1JhWO-95">
          <mxGeometry width="50" height="50" relative="1" as="geometry">
            <mxPoint x="790" y="1150" as="sourcePoint" />
            <mxPoint x="840" y="1100" as="targetPoint" />
          </mxGeometry>
        </mxCell>
        <mxCell id="5dnYx-5fdYnEuuB1JhWO-104" value="Based on clips uploaded in the sample page two steps above, create lego versions of the video and keep voice overs , like sports speeches and such" style="shape=process;whiteSpace=wrap;html=1;backgroundOutline=1;" vertex="1" parent="WIyWlLk6GJQsqaUBKTNV-1">
          <mxGeometry x="1224" y="1190" width="206" height="130" as="geometry" />
        </mxCell>
        <mxCell id="5dnYx-5fdYnEuuB1JhWO-105" value="" style="endArrow=classic;html=1;rounded=0;exitX=0;exitY=0.5;exitDx=0;exitDy=0;entryX=1;entryY=0.75;entryDx=0;entryDy=0;" edge="1" parent="WIyWlLk6GJQsqaUBKTNV-1" source="5dnYx-5fdYnEuuB1JhWO-104" target="5dnYx-5fdYnEuuB1JhWO-95">
          <mxGeometry width="50" height="50" relative="1" as="geometry">
            <mxPoint x="890" y="990" as="sourcePoint" />
            <mxPoint x="940" y="940" as="targetPoint" />
          </mxGeometry>
        </mxCell>
        <mxCell id="5dnYx-5fdYnEuuB1JhWO-106" value="Link to app that can turn regular videos to lego form of other art styles ( E.G. LEANARDO.AI)" style="ellipse;shape=cloud;whiteSpace=wrap;html=1;fillColor=#f8cecc;strokeColor=#b85450;" vertex="1" parent="WIyWlLk6GJQsqaUBKTNV-1">
          <mxGeometry x="1690" y="1180" width="240" height="210" as="geometry" />
        </mxCell>
        <mxCell id="5dnYx-5fdYnEuuB1JhWO-107" value="" style="endArrow=classic;startArrow=classic;html=1;rounded=0;exitX=1;exitY=0.5;exitDx=0;exitDy=0;entryX=0.12;entryY=0.627;entryDx=0;entryDy=0;entryPerimeter=0;" edge="1" parent="WIyWlLk6GJQsqaUBKTNV-1" source="5dnYx-5fdYnEuuB1JhWO-104" target="5dnYx-5fdYnEuuB1JhWO-106">
          <mxGeometry width="50" height="50" relative="1" as="geometry">
            <mxPoint x="1750" y="1180" as="sourcePoint" />
            <mxPoint x="1800" y="1130" as="targetPoint" />
          </mxGeometry>
        </mxCell>
      </root>
    </mxGraphModel>
  </diagram>
</mxfile>
